STARTFONT 2.1
FONT -WRI-Mathematica6Mono-Bold-R-Normal--36-360-75-75-M-110-Adobe-FontSpecific
SIZE 36 75 75
FONTBOUNDINGBOX 28 31 -1 -8
STARTPROPERTIES 16
FOUNDRY "WRI"
FAMILY_NAME "Mathematica6Mono"
WEIGHT_NAME "Bold"
SLANT "R"
SETWIDTH_NAME "Normal"
PIXEL_SIZE 36
POINT_SIZE 360
RESOLUTION_X 75
RESOLUTION_Y 75
SPACING "M"
AVERAGE_WIDTH 110
CHARSET_REGISTRY "Adobe"
CHARSET_ENCODING "FontSpecific"
FONT_DESCENT 8
FONT_ASCENT 23
DEFAULT_CHAR 32
ENDPROPERTIES
CHARS 224
STARTCHAR space
ENCODING 32
SWIDTH 263 0
DWIDTH 9 0
BBX 0 0 0 0
BITMAP
ENDCHAR
STARTCHAR exclam
ENCODING 33
SWIDTH 263 0
DWIDTH 9 0
BBX 0 0 0 0
BITMAP
ENDCHAR
STARTCHAR quotedbl
ENCODING 34
SWIDTH 263 0
DWIDTH 9 0
BBX 0 0 0 0
BITMAP
ENDCHAR
STARTCHAR numbersign
ENCODING 35
SWIDTH 263 0
DWIDTH 9 0
BBX 0 0 0 0
BITMAP
ENDCHAR
STARTCHAR dollar
ENCODING 36
SWIDTH 263 0
DWIDTH 9 0
BBX 0 0 0 0
BITMAP
ENDCHAR
STARTCHAR percent
ENCODING 37
SWIDTH 263 0
DWIDTH 9 0
BBX 0 0 0 0
BITMAP
ENDCHAR
STARTCHAR ampersand
ENCODING 38
SWIDTH 263 0
DWIDTH 9 0
BBX 0 0 0 0
BITMAP
ENDCHAR
STARTCHAR quotesingle
ENCODING 39
SWIDTH 263 0
DWIDTH 9 0
BBX 0 0 0 0
BITMAP
ENDCHAR
STARTCHAR parenleft
ENCODING 40
SWIDTH 263 0
DWIDTH 9 0
BBX 0 0 0 0
BITMAP
ENDCHAR
STARTCHAR parenright
ENCODING 41
SWIDTH 263 0
DWIDTH 9 0
BBX 0 0 0 0
BITMAP
ENDCHAR
STARTCHAR asterisk
ENCODING 42
SWIDTH 263 0
DWIDTH 9 0
BBX 0 0 0 0
BITMAP
ENDCHAR
STARTCHAR plus
ENCODING 43
SWIDTH 263 0
DWIDTH 9 0
BBX 0 0 0 0
BITMAP
ENDCHAR
STARTCHAR comma
ENCODING 44
SWIDTH 263 0
DWIDTH 9 0
BBX 0 0 0 0
BITMAP
ENDCHAR
STARTCHAR hyphen
ENCODING 45
SWIDTH 263 0
DWIDTH 9 0
BBX 0 0 0 0
BITMAP
ENDCHAR
STARTCHAR period
ENCODING 46
SWIDTH 263 0
DWIDTH 9 0
BBX 0 0 0 0
BITMAP
ENDCHAR
STARTCHAR slash
ENCODING 47
SWIDTH 263 0
DWIDTH 9 0
BBX 0 0 0 0
BITMAP
ENDCHAR
STARTCHAR GothicZero
ENCODING 48
SWIDTH 564 0
DWIDTH 20 0
BBX 15 21 3 0
BITMAP
07c0
0ff0
1ff0
3c78
783c
701c
701c
e00e
e00e
e00e
e00e
e00e
e00e
e00e
701c
701c
783c
3c78
1ff0
0fe0
07c0
ENDCHAR
STARTCHAR GothicOne
ENCODING 49
SWIDTH 564 0
DWIDTH 20 0
BBX 9 21 6 0
BITMAP
0c00
7c00
fc00
7c00
1c00
1c00
1c00
1c00
1c00
1c00
1c00
1c00
1c00
1c00
1c00
1c00
1c00
1c00
ff80
ff80
ff80
ENDCHAR
STARTCHAR GothicTwo
ENCODING 50
SWIDTH 564 0
DWIDTH 20 0
BBX 14 21 3 0
BITMAP
07c0
1fe0
3ff0
7878
703c
001c
001c
001c
003c
0078
00f0
01e0
03c0
0780
0f00
1e00
3c00
7000
fffc
fffc
fff8
ENDCHAR
STARTCHAR GothicThree
ENCODING 51
SWIDTH 564 0
DWIDTH 20 0
BBX 15 21 3 0
BITMAP
0fc0
3ff0
7ff8
7878
601c
001c
001c
003c
03f8
03f0
03f8
007c
001c
000e
000e
000e
401c
f07c
fff8
7ff0
1fc0
ENDCHAR
STARTCHAR GothicFour
ENCODING 52
SWIDTH 564 0
DWIDTH 20 0
BBX 14 21 3 0
BITMAP
01f0
01f0
03f0
03f0
0770
0f70
0e70
1c70
1c70
3870
7870
7070
e070
fffc
fff8
fff8
0070
0070
07f8
07f8
07f8
ENDCHAR
STARTCHAR GothicFive
ENCODING 53
SWIDTH 564 0
DWIDTH 20 0
BBX 16 20 2 0
BITMAP
1ffe
1ffe
1ffe
1c00
3800
3800
3fe0
3ff8
3ffc
3c1e
100e
0007
0007
0007
0007
600e
f83e
7ffc
3ff8
0fe0
ENDCHAR
STARTCHAR GothicSix
ENCODING 54
SWIDTH 564 0
DWIDTH 20 0
BBX 13 22 4 0
BITMAP
0180
03c0
0780
0f00
0e00
1c00
3800
3800
7780
7fc0
7ff0
f8f0
f078
e038
e038
e038
e038
f070
78f0
7fe0
3fc0
0f00
ENDCHAR
STARTCHAR GothicSeven
ENCODING 55
SWIDTH 564 0
DWIDTH 20 0
BBX 15 21 3 0
BITMAP
7ffe
fffe
fffe
e00e
001c
001c
001c
0038
0038
0070
0070
0070
00e0
00e0
01c0
01c0
01c0
0380
0380
0700
0700
ENDCHAR
STARTCHAR GothicEight
ENCODING 56
SWIDTH 564 0
DWIDTH 20 0
BBX 15 23 3 -1
BITMAP
07c0
1ff0
3ff8
3c78
783c
701c
701c
701c
3c78
1ff8
1ff0
3ff8
787c
f01c
e00e
e00e
e00e
e00e
701c
787c
3ff8
1ff0
07c0
ENDCHAR
STARTCHAR GothicNine
ENCODING 57
SWIDTH 564 0
DWIDTH 20 0
BBX 12 22 5 0
BITMAP
0f00
3fc0
7fe0
70e0
e070
e070
e070
e070
e070
e0f0
7fe0
7fe0
1fe0
01c0
01c0
0380
0380
0700
0700
0e00
0e00
1c00
ENDCHAR
STARTCHAR colon
ENCODING 58
SWIDTH 263 0
DWIDTH 9 0
BBX 0 0 0 0
BITMAP
ENDCHAR
STARTCHAR semicolon
ENCODING 59
SWIDTH 263 0
DWIDTH 9 0
BBX 0 0 0 0
BITMAP
ENDCHAR
STARTCHAR less
ENCODING 60
SWIDTH 263 0
DWIDTH 9 0
BBX 0 0 0 0
BITMAP
ENDCHAR
STARTCHAR equal
ENCODING 61
SWIDTH 263 0
DWIDTH 9 0
BBX 0 0 0 0
BITMAP
ENDCHAR
STARTCHAR greater
ENCODING 62
SWIDTH 263 0
DWIDTH 9 0
BBX 0 0 0 0
BITMAP
ENDCHAR
STARTCHAR question
ENCODING 63
SWIDTH 263 0
DWIDTH 9 0
BBX 0 0 0 0
BITMAP
ENDCHAR
STARTCHAR at
ENCODING 64
SWIDTH 263 0
DWIDTH 9 0
BBX 0 0 0 0
BITMAP
ENDCHAR
STARTCHAR GothicCapA
ENCODING 65
SWIDTH 619 0
DWIDTH 22 0
BBX 20 22 1 -1
BITMAP
0fe000
3ffc00
ffff80
f79f80
470380
0e0380
0e0380
0e0380
0e0380
0e0380
3ff380
3ff380
0e0380
0e0380
0e0380
0e0380
0e0380
1c0380
3f03c0
0f83f0
0780f0
010020
ENDCHAR
STARTCHAR GothicCapB
ENCODING 66
SWIDTH 586 0
DWIDTH 21 0
BBX 19 22 1 -1
BITMAP
3fe000
7ffc00
7ffe00
0e0f00
0e0700
0e0700
0e0700
0e1e00
0fff00
0fffc0
0e03c0
0e00e0
0e00e0
0e00e0
0e00e0
4e00e0
fe01c0
fe03c0
7f0780
1fff00
03fe00
00f800
ENDCHAR
STARTCHAR GothicCapC
ENCODING 67
SWIDTH 558 0
DWIDTH 20 0
BBX 17 20 1 0
BITMAP
01c000
0ff000
3fff80
7c1f80
700780
e00000
e00000
e00000
e00000
e00000
e00000
e00000
e00000
e00000
700000
780180
3e0780
1fff00
0ffe00
01f000
ENDCHAR
STARTCHAR GothicCapD
ENCODING 68
SWIDTH 642 0
DWIDTH 23 0
BBX 21 21 1 0
BITMAP
0ff800
7ffe00
ffff80
e783c0
0701e0
070070
070070
070038
070038
070038
070038
070038
070038
070038
0700f0
8e01f0
fe03c0
fe0f80
1ffe00
07fc00
007000
ENDCHAR
STARTCHAR GothicCapE
ENCODING 69
SWIDTH 541 0
DWIDTH 19 0
BBX 17 20 1 0
BITMAP
00c000
0ff800
3fff80
7e1f80
700780
e00000
e00000
e00080
efff00
ffff80
fffe00
f80000
f00000
f00000
700000
780300
3e0f80
1fff00
07fc00
01f000
ENDCHAR
STARTCHAR GothicCapF
ENCODING 70
SWIDTH 556 0
DWIDTH 20 0
BBX 19 24 1 -3
BITMAP
7f0000
fff000
ffffe0
43ffe0
070fe0
070000
060000
0e0000
0e0000
0ffe00
3ffe00
1fff00
0e0000
0e0000
0e0000
0e0000
0e0000
0e0000
0e0000
0e0000
0e0000
0e0000
0e0000
0e0000
ENDCHAR
STARTCHAR GothicCapG
ENCODING 71
SWIDTH 559 0
DWIDTH 20 0
BBX 17 20 1 0
BITMAP
01c000
0ff000
3fff80
7c1f80
700780
e00000
e00000
e00000
e00000
e1ff80
e1ff80
e1ff80
e00380
600380
700380
380f80
3e3f00
1ff800
07f000
03e000
ENDCHAR
STARTCHAR GothicCapH
ENCODING 72
SWIDTH 593 0
DWIDTH 21 0
BBX 20 22 0 -1
BITMAP
400400
f00e00
f80f80
3c07e0
1c01c0
1c0380
1c0380
1c0380
1c0380
1fff80
1fff80
1fff80
1c0380
1c0380
1c0380
1c0380
1c0380
380380
7e03c0
1f01f0
0700f0
020020
ENDCHAR
STARTCHAR GothicCapI
ENCODING 73
SWIDTH 335 0
DWIDTH 12 0
BBX 10 22 1 -1
BITMAP
3e00
7f80
ffc0
4780
0f00
0e00
0600
0600
0600
0600
0600
0600
0600
0600
0600
0600
0e00
0e00
1f00
0fc0
03c0
0080
ENDCHAR
STARTCHAR GothicCapJ
ENCODING 74
SWIDTH 550 0
DWIDTH 20 0
BBX 18 22 1 -1
BITMAP
7f0080
3fef80
3fffc0
007f80
000e00
000e00
000c00
000c00
000c00
000c00
600c00
f00c00
e00c00
e00c00
e01c00
703c00
78f800
39f000
1fc000
1f8000
0f0000
020000
ENDCHAR
STARTCHAR GothicCapK
ENCODING 75
SWIDTH 628 0
DWIDTH 23 0
BBX 21 22 1 -1
BITMAP
1c0010
7f8078
ffc1f8
6783e0
070380
070700
070e00
071e00
073c00
07ff00
07ff00
070700
070700
070380
070380
070380
0f0380
0e0380
1f01c0
0fc1e0
03c0e0
008040
ENDCHAR
STARTCHAR GothicCapL
ENCODING 76
SWIDTH 619 0
DWIDTH 22 0
BBX 20 20 1 0
BITMAP
001800
007e00
01ff00
03c780
038380
038780
038300
038000
038000
038000
01c000
01c000
01c000
038000
078000
3f0020
ffc070
fffff0
40ffe0
000f80
ENDCHAR
STARTCHAR GothicCapM
ENCODING 77
SWIDTH 720 0
DWIDTH 26 0
BBX 23 22 2 -1
BITMAP
308020
73c0e0
77e3f8
7fffbc
7c3f1e
781c0e
701c0e
701c0e
701c0e
701c0e
701c0e
701c0e
701c0e
701c0e
701c0e
701c0e
701c0e
f01c0e
f81c0e
7e1c0e
1e1c0e
040000
ENDCHAR
STARTCHAR GothicCapN
ENCODING 78
SWIDTH 456 0
DWIDTH 16 0
BBX 14 22 2 -1
BITMAP
3040
31c0
37e0
3f78
3e3c
381c
381c
381c
381c
381c
381c
381c
301c
301c
301c
301c
701c
701c
f81c
7e1c
1e1c
0400
ENDCHAR
STARTCHAR GothicCapO
ENCODING 79
SWIDTH 614 0
DWIDTH 22 0
BBX 20 20 1 0
BITMAP
007c00
18ff00
1c7f80
3803c0
7001e0
7000e0
e00070
e00070
e00070
e00070
e00070
e00070
e00070
e000f0
7001e0
7807c0
3e0f80
1ffe00
07fc00
01f800
ENDCHAR
STARTCHAR GothicCapP
ENCODING 80
SWIDTH 554 0
DWIDTH 20 0
BBX 18 22 1 -1
BITMAP
01f800
0ffe00
3fff80
7e03c0
fe01c0
4e01c0
0e01c0
0e01c0
0e01c0
0e0380
0e0f80
0fff00
0ffc00
0e0000
0e0000
0e0000
0e0000
1e0000
1f0000
0fc000
03c000
008000
ENDCHAR
STARTCHAR GothicCapQ
ENCODING 81
SWIDTH 653 0
DWIDTH 24 0
BBX 22 20 1 0
BITMAP
007c00
0dff00
1cef80
3803c0
7800e0
7000f0
e00070
e00070
e00038
e00038
e00038
e00030
e02070
73f870
79fef0
3d1fe0
1f07c8
0ffffc
03fefc
003070
ENDCHAR
STARTCHAR GothicCapR
ENCODING 82
SWIDTH 646 0
DWIDTH 23 0
BBX 21 22 1 -1
BITMAP
03f800
0fff00
3fbf80
fe03c0
fe01c0
4e01c0
0e01c0
0e0380
0e0780
0e3f00
0fff00
0fff00
0e0700
0e0380
0e0380
0e01c0
0e01c0
1e00e0
1f00f0
0fc078
038038
018010
ENDCHAR
STARTCHAR GothicCapS
ENCODING 83
SWIDTH 562 0
DWIDTH 20 0
BBX 18 21 1 0
BITMAP
01e000
07f800
1ffe00
3e1fc0
3807c0
300000
700000
700000
38ff80
3fffc0
1fe1c0
8001c0
e001c0
f801c0
7801c0
1c03c0
0e0f80
073f00
07fc00
03f000
01e000
ENDCHAR
STARTCHAR GothicCapT
ENCODING 84
SWIDTH 667 0
DWIDTH 24 0
BBX 24 22 1 -1
BITMAP
0fc002
3ffc06
7fffff
703ffe
e039f8
e07000
e07000
f07000
707000
307000
007000
007000
007000
007000
007000
007000
007000
00f000
00f800
007e00
001e00
000400
ENDCHAR
STARTCHAR GothicCapU
ENCODING 85
SWIDTH 600 0
DWIDTH 22 0
BBX 20 21 0 0
BITMAP
400200
f00780
fc07e0
3c01f0
1c00e0
1c01e0
1c01c0
1c01c0
1c01c0
1c01c0
1c01c0
1c01c0
1c01c0
1c01c0
1c01c0
1c01c0
1c07c0
1f1fc0
0fffc0
03f9c0
00e1c0
ENDCHAR
STARTCHAR GothicCapV
ENCODING 86
SWIDTH 489 0
DWIDTH 18 0
BBX 18 22 -1 -1
BITMAP
400800
f01e00
fc1f00
3c07c0
1c03c0
1c0780
1c0700
1c0700
1c0700
1c0700
1c0700
1c0700
1c0700
1c0700
1c0700
1c0700
1c0f00
1e3e00
0ff800
03f000
01e000
00c000
ENDCHAR
STARTCHAR GothicCapW
ENCODING 87
SWIDTH 790 0
DWIDTH 28 0
BBX 27 22 0 -1
BITMAP
40000400
f0060f00
fc0e0fc0
3c0e03e0
1c0e01c0
1c0e03c0
1c0e0380
1c0e0380
1c0e0380
1c0e0380
1c0e0380
1c0e0380
1c0e0380
1c0e0380
1c0e0380
1c0e0380
1c1e0f80
1e7f9f00
0ff7fc00
07e1f800
03c0f000
00806000
ENDCHAR
STARTCHAR GothicCapX
ENCODING 88
SWIDTH 574 0
DWIDTH 21 0
BBX 19 22 1 -1
BITMAP
301c00
3c1fe0
3e1fc0
0e0380
070700
078e00
039e00
03fc00
01f880
3fffc0
ffffc0
f3f000
27b800
0f3c00
1e1e00
3c0e00
780f00
f00780
7c03c0
3f01e0
0e00e0
040000
ENDCHAR
STARTCHAR GothicCapY
ENCODING 89
SWIDTH 526 0
DWIDTH 19 0
BBX 17 23 1 -2
BITMAP
401000
f03c00
f83f00
3c0f80
1c0780
1c0f00
1c0e00
1c0e00
1c0e00
1c0e00
1c0e00
1c0e00
1e1e00
1fbe00
07fe00
01fe00
006e00
100e00
1c1e00
3f3c00
1ff800
03f000
004000
ENDCHAR
STARTCHAR GothicCapZ
ENCODING 90
SWIDTH 700 0
DWIDTH 25 0
BBX 23 20 1 0
BITMAP
07f000
0fff00
0ffffc
0407fe
0000fe
0001e0
0003c0
000f80
07ff00
03fff0
037ff0
00f000
01e000
03c000
078000
0f0000
7fc000
fffff8
e3fff8
400ff0
ENDCHAR
STARTCHAR bracketleft
ENCODING 91
SWIDTH 263 0
DWIDTH 9 0
BBX 0 0 0 0
BITMAP
ENDCHAR
STARTCHAR backslash
ENCODING 92
SWIDTH 263 0
DWIDTH 9 0
BBX 0 0 0 0
BITMAP
ENDCHAR
STARTCHAR bracketright
ENCODING 93
SWIDTH 263 0
DWIDTH 9 0
BBX 0 0 0 0
BITMAP
ENDCHAR
STARTCHAR asciicircum
ENCODING 94
SWIDTH 263 0
DWIDTH 9 0
BBX 0 0 0 0
BITMAP
ENDCHAR
STARTCHAR underscore
ENCODING 95
SWIDTH 263 0
DWIDTH 9 0
BBX 0 0 0 0
BITMAP
ENDCHAR
STARTCHAR grave
ENCODING 96
SWIDTH 263 0
DWIDTH 9 0
BBX 0 0 0 0
BITMAP
ENDCHAR
STARTCHAR GothicA
ENCODING 97
SWIDTH 408 0
DWIDTH 15 0
BBX 11 16 1 0
BITMAP
0c00
1f00
7fc0
fbe0
e0e0
e0e0
e0e0
e0e0
e0e0
e0e0
e0e0
e3e0
f7e0
7f60
1e60
0860
ENDCHAR
STARTCHAR GothicB
ENCODING 98
SWIDTH 462 0
DWIDTH 17 0
BBX 11 23 3 0
BITMAP
e000
e000
e000
e000
e000
e000
e200
ef00
ff80
ffe0
f1e0
e0e0
e0e0
e0e0
e0e0
e0e0
e0e0
e0e0
f8e0
ffe0
dfc0
cf00
c400
ENDCHAR
STARTCHAR GothicC
ENCODING 99
SWIDTH 375 0
DWIDTH 13 0
BBX 11 17 1 -1
BITMAP
0400
1f00
3f80
fbe0
f1e0
e0c0
e000
e000
e000
e000
e000
e000
f100
ffc0
3f80
0f80
0300
ENDCHAR
STARTCHAR GothicD
ENCODING 100
SWIDTH 419 0
DWIDTH 15 0
BBX 11 23 1 0
BITMAP
00e0
00e0
00e0
00e0
00e0
00e0
00e0
0ee0
3fe0
ffe0
f1e0
e0e0
e0e0
e0e0
e0e0
e0e0
e0e0
e0e0
e3e0
ffe0
7f60
1e60
0460
ENDCHAR
STARTCHAR GothicE
ENCODING 101
SWIDTH 379 0
DWIDTH 14 0
BBX 10 16 1 0
BITMAP
0c00
1e00
7f00
ff80
e3c0
e7c0
ff00
fe00
f800
f000
e000
e080
f380
ffc0
3f00
0c00
ENDCHAR
STARTCHAR GothicF
ENCODING 102
SWIDTH 354 0
DWIDTH 13 0
BBX 12 27 1 -4
BITMAP
0200
0f80
1fe0
3ff0
38e0
3820
3800
ffc0
ffc0
ffc0
3800
3800
3800
3800
3800
3800
3800
3800
3800
3800
3800
3800
3800
3800
3800
3800
3800
ENDCHAR
STARTCHAR GothicG
ENCODING 103
SWIDTH 438 0
DWIDTH 16 0
BBX 12 24 1 -8
BITMAP
0600
0f80
3fe0
7ff0
78f0
7070
7070
7070
7070
7070
7070
7070
79f0
7ff0
3ff0
0f70
0670
4070
e070
f1f0
7fe0
3f80
0f00
0400
ENDCHAR
STARTCHAR GothicH
ENCODING 104
SWIDTH 428 0
DWIDTH 15 0
BBX 12 23 1 0
BITMAP
e000
e000
e000
e000
e000
e000
e000
e700
ef80
ffe0
fdf0
f070
e070
e070
e070
e070
e070
e070
e070
e070
e070
e070
e070
ENDCHAR
STARTCHAR GothicI
ENCODING 105
SWIDTH 211 0
DWIDTH 8 0
BBX 4 21 1 0
BITMAP
e0
e0
e0
00
00
e0
e0
e0
e0
e0
e0
e0
e0
e0
e0
e0
e0
e0
f0
70
20
ENDCHAR
STARTCHAR GothicJ
ENCODING 106
SWIDTH 234 0
DWIDTH 8 0
BBX 6 28 0 -7
BITMAP
1c
1c
1c
00
00
1c
1c
1c
1c
1c
1c
1c
1c
1c
1c
1c
1c
1c
1c
1c
1c
1c
3c
78
70
f0
e0
40
ENDCHAR
STARTCHAR GothicK
ENCODING 107
SWIDTH 414 0
DWIDTH 15 0
BBX 12 23 1 0
BITMAP
e000
e000
e000
e000
e000
e000
e000
e700
ff80
ffc0
f9e0
e0f0
e3f0
efc0
ff80
ffe0
f9e0
e0e0
e0e0
e0e0
e0e0
e0e0
e0e0
ENDCHAR
STARTCHAR GothicL
ENCODING 108
SWIDTH 236 0
DWIDTH 9 0
BBX 5 22 1 0
BITMAP
70
70
70
70
70
70
70
70
70
70
70
70
70
70
70
70
70
e0
f0
78
38
10
ENDCHAR
STARTCHAR GothicM
ENCODING 109
SWIDTH 636 0
DWIDTH 23 0
BBX 19 17 2 0
BITMAP
e00000
ee0f00
ff9fc0
ffffe0
f1f0e0
e0e0e0
e0e0e0
e0e0e0
e0e0e0
e0e0e0
e0e0e0
e0e0e0
e0e0e0
e0e0e0
e0e0e0
e0e0e0
e0e0e0
ENDCHAR
STARTCHAR GothicN
ENCODING 110
SWIDTH 410 0
DWIDTH 15 0
BBX 11 17 2 0
BITMAP
e000
ef00
ff80
ffe0
f1e0
e0e0
e0e0
e0e0
e0e0
e0e0
e0e0
e0e0
e0e0
e0e0
e0e0
e0e0
e0e0
ENDCHAR
STARTCHAR GothicO
ENCODING 111
SWIDTH 406 0
DWIDTH 15 0
BBX 11 16 1 0
BITMAP
0c00
1f00
7fc0
fbe0
e0e0
e0e0
e0e0
e0e0
e0e0
e0e0
e0e0
e1e0
fbc0
7f80
1f00
0600
ENDCHAR
STARTCHAR GothicP
ENCODING 112
SWIDTH 427 0
DWIDTH 15 0
BBX 11 23 2 -6
BITMAP
e400
ef00
ffc0
fbe0
f0e0
e0e0
e0e0
e0e0
e0e0
e0e0
e0e0
e0e0
e1e0
fbe0
ffc0
ff80
e700
e000
e000
e000
e000
e000
e000
ENDCHAR
STARTCHAR GothicQ
ENCODING 113
SWIDTH 410 0
DWIDTH 15 0
BBX 11 23 1 -7
BITMAP
0c00
3f00
7fc0
ffe0
e1e0
e0e0
e0e0
e0e0
e0e0
e0e0
e0e0
e1e0
e3e0
ffe0
7fe0
1ee0
08e0
00e0
00e0
00e0
00e0
00e0
00e0
ENDCHAR
STARTCHAR GothicR
ENCODING 114
SWIDTH 373 0
DWIDTH 13 0
BBX 10 17 2 0
BITMAP
e000
e400
ff00
ffc0
fbc0
e0c0
e000
e000
e000
e000
e000
e000
e000
e000
e000
e000
e000
ENDCHAR
STARTCHAR GothicS
ENCODING 115
SWIDTH 507 0
DWIDTH 18 0
BBX 15 16 1 0
BITMAP
0380
0ffe
1ffe
3c3e
3800
38f8
3ffc
3ffc
1e1c
200e
f80e
fc1c
5c3c
0ff8
07e0
0380
ENDCHAR
STARTCHAR GothicT
ENCODING 116
SWIDTH 366 0
DWIDTH 13 0
BBX 10 19 1 0
BITMAP
1c00
1c00
1c00
ffc0
ffc0
ffc0
1c00
1c00
1c00
1c00
1c00
1c00
1c00
1c00
1c00
1e00
0f00
0780
0300
ENDCHAR
STARTCHAR GothicU
ENCODING 117
SWIDTH 473 0
DWIDTH 17 0
BBX 11 16 3 0
BITMAP
e0e0
e0e0
e0e0
e0e0
e0e0
e0e0
e0e0
e0e0
e0e0
e0e0
e0e0
e0e0
f3e0
ffe0
3e60
0c60
ENDCHAR
STARTCHAR GothicV
ENCODING 118
SWIDTH 454 0
DWIDTH 16 0
BBX 10 16 3 0
BITMAP
e1c0
e1c0
e1c0
e1c0
e1c0
e1c0
e1c0
e1c0
e1c0
e1c0
e1c0
e3c0
ff80
7f00
1e00
0c00
ENDCHAR
STARTCHAR GothicW
ENCODING 119
SWIDTH 673 0
DWIDTH 24 0
BBX 18 16 3 0
BITMAP
e1e1c0
e1e1c0
e1e1c0
e1e1c0
e1e1c0
e1e1c0
e1e1c0
e1e1c0
e1e1c0
e1e1c0
e1e1c0
e3e3c0
fff780
7f7f00
1e1e00
0c0800
ENDCHAR
STARTCHAR GothicX
ENCODING 120
SWIDTH 520 0
DWIDTH 19 0
BBX 15 16 1 0
BITMAP
6060
7c78
7efe
1e3c
0f78
07f0
7ffc
fffe
7ff8
0fe0
1ef0
3c70
f838
f83e
3c1e
0800
ENDCHAR
STARTCHAR GothicY
ENCODING 121
SWIDTH 491 0
DWIDTH 18 0
BBX 13 24 2 -8
BITMAP
3838
3838
3838
3838
3838
3838
3838
3838
3838
3838
3838
3838
3838
3ef8
1ff8
07f8
0138
4038
e038
f8f8
7ff0
1fe0
0f80
0300
ENDCHAR
STARTCHAR GothicZ
ENCODING 122
SWIDTH 534 0
DWIDTH 19 0
BBX 17 16 1 0
BITMAP
0fe200
0fff80
0fff00
000f00
001e00
003c00
0ffe00
0ffe00
0ffe00
03c000
078000
3f8000
ff0100
7fff00
43ff80
007e00
ENDCHAR
STARTCHAR braceleft
ENCODING 123
SWIDTH 263 0
DWIDTH 9 0
BBX 0 0 0 0
BITMAP
ENDCHAR
STARTCHAR bar
ENCODING 124
SWIDTH 263 0
DWIDTH 9 0
BBX 0 0 0 0
BITMAP
ENDCHAR
STARTCHAR braceright
ENCODING 125
SWIDTH 263 0
DWIDTH 9 0
BBX 0 0 0 0
BITMAP
ENDCHAR
STARTCHAR asciitilde
ENCODING 126
SWIDTH 263 0
DWIDTH 9 0
BBX 0 0 0 0
BITMAP
ENDCHAR
STARTCHAR DEL
ENCODING 127
SWIDTH 263 0
DWIDTH 9 0
BBX 0 0 0 0
BITMAP
ENDCHAR
STARTCHAR Adieresis
ENCODING 128
SWIDTH 263 0
DWIDTH 9 0
BBX 0 0 0 0
BITMAP
ENDCHAR
STARTCHAR Aring
ENCODING 129
SWIDTH 263 0
DWIDTH 9 0
BBX 0 0 0 0
BITMAP
ENDCHAR
STARTCHAR Ccedilla
ENCODING 130
SWIDTH 263 0
DWIDTH 9 0
BBX 0 0 0 0
BITMAP
ENDCHAR
STARTCHAR Eacute
ENCODING 131
SWIDTH 263 0
DWIDTH 9 0
BBX 0 0 0 0
BITMAP
ENDCHAR
STARTCHAR Ntilde
ENCODING 132
SWIDTH 263 0
DWIDTH 9 0
BBX 0 0 0 0
BITMAP
ENDCHAR
STARTCHAR Odieresis
ENCODING 133
SWIDTH 263 0
DWIDTH 9 0
BBX 0 0 0 0
BITMAP
ENDCHAR
STARTCHAR Udieresis
ENCODING 134
SWIDTH 263 0
DWIDTH 9 0
BBX 0 0 0 0
BITMAP
ENDCHAR
STARTCHAR aacute
ENCODING 135
SWIDTH 263 0
DWIDTH 9 0
BBX 0 0 0 0
BITMAP
ENDCHAR
STARTCHAR agrave
ENCODING 136
SWIDTH 263 0
DWIDTH 9 0
BBX 0 0 0 0
BITMAP
ENDCHAR
STARTCHAR acircumflex
ENCODING 137
SWIDTH 263 0
DWIDTH 9 0
BBX 0 0 0 0
BITMAP
ENDCHAR
STARTCHAR adieresis
ENCODING 138
SWIDTH 263 0
DWIDTH 9 0
BBX 0 0 0 0
BITMAP
ENDCHAR
STARTCHAR atilde
ENCODING 139
SWIDTH 263 0
DWIDTH 9 0
BBX 0 0 0 0
BITMAP
ENDCHAR
STARTCHAR aring
ENCODING 140
SWIDTH 263 0
DWIDTH 9 0
BBX 0 0 0 0
BITMAP
ENDCHAR
STARTCHAR ccedilla
ENCODING 141
SWIDTH 263 0
DWIDTH 9 0
BBX 0 0 0 0
BITMAP
ENDCHAR
STARTCHAR eacute
ENCODING 142
SWIDTH 263 0
DWIDTH 9 0
BBX 0 0 0 0
BITMAP
ENDCHAR
STARTCHAR egrave
ENCODING 143
SWIDTH 263 0
DWIDTH 9 0
BBX 0 0 0 0
BITMAP
ENDCHAR
STARTCHAR ecircumflex
ENCODING 144
SWIDTH 263 0
DWIDTH 9 0
BBX 0 0 0 0
BITMAP
ENDCHAR
STARTCHAR edieresis
ENCODING 145
SWIDTH 263 0
DWIDTH 9 0
BBX 0 0 0 0
BITMAP
ENDCHAR
STARTCHAR iacute
ENCODING 146
SWIDTH 263 0
DWIDTH 9 0
BBX 0 0 0 0
BITMAP
ENDCHAR
STARTCHAR igrave
ENCODING 147
SWIDTH 263 0
DWIDTH 9 0
BBX 0 0 0 0
BITMAP
ENDCHAR
STARTCHAR icircumflex
ENCODING 148
SWIDTH 263 0
DWIDTH 9 0
BBX 0 0 0 0
BITMAP
ENDCHAR
STARTCHAR idieresis
ENCODING 149
SWIDTH 263 0
DWIDTH 9 0
BBX 0 0 0 0
BITMAP
ENDCHAR
STARTCHAR ntilde
ENCODING 150
SWIDTH 263 0
DWIDTH 9 0
BBX 0 0 0 0
BITMAP
ENDCHAR
STARTCHAR oacute
ENCODING 151
SWIDTH 263 0
DWIDTH 9 0
BBX 0 0 0 0
BITMAP
ENDCHAR
STARTCHAR ograve
ENCODING 152
SWIDTH 263 0
DWIDTH 9 0
BBX 0 0 0 0
BITMAP
ENDCHAR
STARTCHAR ocircumflex
ENCODING 153
SWIDTH 263 0
DWIDTH 9 0
BBX 0 0 0 0
BITMAP
ENDCHAR
STARTCHAR odieresis
ENCODING 154
SWIDTH 263 0
DWIDTH 9 0
BBX 0 0 0 0
BITMAP
ENDCHAR
STARTCHAR otilde
ENCODING 155
SWIDTH 263 0
DWIDTH 9 0
BBX 0 0 0 0
BITMAP
ENDCHAR
STARTCHAR uacute
ENCODING 156
SWIDTH 263 0
DWIDTH 9 0
BBX 0 0 0 0
BITMAP
ENDCHAR
STARTCHAR ugrave
ENCODING 157
SWIDTH 263 0
DWIDTH 9 0
BBX 0 0 0 0
BITMAP
ENDCHAR
STARTCHAR ucircumflex
ENCODING 158
SWIDTH 263 0
DWIDTH 9 0
BBX 0 0 0 0
BITMAP
ENDCHAR
STARTCHAR udieresis
ENCODING 159
SWIDTH 263 0
DWIDTH 9 0
BBX 0 0 0 0
BITMAP
ENDCHAR
STARTCHAR dagger
ENCODING 160
SWIDTH 263 0
DWIDTH 9 0
BBX 0 0 0 0
BITMAP
ENDCHAR
STARTCHAR degree
ENCODING 161
SWIDTH 263 0
DWIDTH 9 0
BBX 0 0 0 0
BITMAP
ENDCHAR
STARTCHAR cent
ENCODING 162
SWIDTH 263 0
DWIDTH 9 0
BBX 0 0 0 0
BITMAP
ENDCHAR
STARTCHAR sterling
ENCODING 163
SWIDTH 263 0
DWIDTH 9 0
BBX 0 0 0 0
BITMAP
ENDCHAR
STARTCHAR section
ENCODING 164
SWIDTH 263 0
DWIDTH 9 0
BBX 0 0 0 0
BITMAP
ENDCHAR
STARTCHAR bullet
ENCODING 165
SWIDTH 263 0
DWIDTH 9 0
BBX 0 0 0 0
BITMAP
ENDCHAR
STARTCHAR paragraph
ENCODING 166
SWIDTH 263 0
DWIDTH 9 0
BBX 0 0 0 0
BITMAP
ENDCHAR
STARTCHAR germandbls
ENCODING 167
SWIDTH 263 0
DWIDTH 9 0
BBX 0 0 0 0
BITMAP
ENDCHAR
STARTCHAR registered
ENCODING 168
SWIDTH 263 0
DWIDTH 9 0
BBX 0 0 0 0
BITMAP
ENDCHAR
STARTCHAR copyright
ENCODING 169
SWIDTH 263 0
DWIDTH 9 0
BBX 0 0 0 0
BITMAP
ENDCHAR
STARTCHAR trademark
ENCODING 170
SWIDTH 263 0
DWIDTH 9 0
BBX 0 0 0 0
BITMAP
ENDCHAR
STARTCHAR acute
ENCODING 171
SWIDTH 263 0
DWIDTH 9 0
BBX 0 0 0 0
BITMAP
ENDCHAR
STARTCHAR dieresis
ENCODING 172
SWIDTH 263 0
DWIDTH 9 0
BBX 0 0 0 0
BITMAP
ENDCHAR
STARTCHAR notequal
ENCODING 173
SWIDTH 263 0
DWIDTH 9 0
BBX 0 0 0 0
BITMAP
ENDCHAR
STARTCHAR AE
ENCODING 174
SWIDTH 263 0
DWIDTH 9 0
BBX 0 0 0 0
BITMAP
ENDCHAR
STARTCHAR Oslash
ENCODING 175
SWIDTH 263 0
DWIDTH 9 0
BBX 0 0 0 0
BITMAP
ENDCHAR
STARTCHAR infinity
ENCODING 176
SWIDTH 263 0
DWIDTH 9 0
BBX 0 0 0 0
BITMAP
ENDCHAR
STARTCHAR plusminus
ENCODING 177
SWIDTH 263 0
DWIDTH 9 0
BBX 0 0 0 0
BITMAP
ENDCHAR
STARTCHAR lessequal
ENCODING 178
SWIDTH 263 0
DWIDTH 9 0
BBX 0 0 0 0
BITMAP
ENDCHAR
STARTCHAR greaterequal
ENCODING 179
SWIDTH 263 0
DWIDTH 9 0
BBX 0 0 0 0
BITMAP
ENDCHAR
STARTCHAR yen
ENCODING 180
SWIDTH 263 0
DWIDTH 9 0
BBX 0 0 0 0
BITMAP
ENDCHAR
STARTCHAR mu
ENCODING 181
SWIDTH 263 0
DWIDTH 9 0
BBX 0 0 0 0
BITMAP
ENDCHAR
STARTCHAR partialdiff
ENCODING 182
SWIDTH 263 0
DWIDTH 9 0
BBX 0 0 0 0
BITMAP
ENDCHAR
STARTCHAR summation
ENCODING 183
SWIDTH 263 0
DWIDTH 9 0
BBX 0 0 0 0
BITMAP
ENDCHAR
STARTCHAR product
ENCODING 184
SWIDTH 263 0
DWIDTH 9 0
BBX 0 0 0 0
BITMAP
ENDCHAR
STARTCHAR pi
ENCODING 185
SWIDTH 263 0
DWIDTH 9 0
BBX 0 0 0 0
BITMAP
ENDCHAR
STARTCHAR integral
ENCODING 186
SWIDTH 263 0
DWIDTH 9 0
BBX 0 0 0 0
BITMAP
ENDCHAR
STARTCHAR ordfeminine
ENCODING 187
SWIDTH 263 0
DWIDTH 9 0
BBX 0 0 0 0
BITMAP
ENDCHAR
STARTCHAR ordmasculine
ENCODING 188
SWIDTH 263 0
DWIDTH 9 0
BBX 0 0 0 0
BITMAP
ENDCHAR
STARTCHAR Omega
ENCODING 189
SWIDTH 263 0
DWIDTH 9 0
BBX 0 0 0 0
BITMAP
ENDCHAR
STARTCHAR ae
ENCODING 190
SWIDTH 263 0
DWIDTH 9 0
BBX 0 0 0 0
BITMAP
ENDCHAR
STARTCHAR oslash
ENCODING 191
SWIDTH 263 0
DWIDTH 9 0
BBX 0 0 0 0
BITMAP
ENDCHAR
STARTCHAR questiondown
ENCODING 192
SWIDTH 263 0
DWIDTH 9 0
BBX 0 0 0 0
BITMAP
ENDCHAR
STARTCHAR exclamdown
ENCODING 193
SWIDTH 263 0
DWIDTH 9 0
BBX 0 0 0 0
BITMAP
ENDCHAR
STARTCHAR logicalnot
ENCODING 194
SWIDTH 263 0
DWIDTH 9 0
BBX 0 0 0 0
BITMAP
ENDCHAR
STARTCHAR radical
ENCODING 195
SWIDTH 263 0
DWIDTH 9 0
BBX 0 0 0 0
BITMAP
ENDCHAR
STARTCHAR florin
ENCODING 196
SWIDTH 263 0
DWIDTH 9 0
BBX 0 0 0 0
BITMAP
ENDCHAR
STARTCHAR approxequal
ENCODING 197
SWIDTH 263 0
DWIDTH 9 0
BBX 0 0 0 0
BITMAP
ENDCHAR
STARTCHAR Delta
ENCODING 198
SWIDTH 263 0
DWIDTH 9 0
BBX 0 0 0 0
BITMAP
ENDCHAR
STARTCHAR guillemotleft
ENCODING 199
SWIDTH 263 0
DWIDTH 9 0
BBX 0 0 0 0
BITMAP
ENDCHAR
STARTCHAR guillemotright
ENCODING 200
SWIDTH 263 0
DWIDTH 9 0
BBX 0 0 0 0
BITMAP
ENDCHAR
STARTCHAR ellipsis
ENCODING 201
SWIDTH 263 0
DWIDTH 9 0
BBX 0 0 0 0
BITMAP
ENDCHAR
STARTCHAR nbspace
ENCODING 202
SWIDTH 263 0
DWIDTH 9 0
BBX 0 0 0 0
BITMAP
ENDCHAR
STARTCHAR Agrave
ENCODING 203
SWIDTH 263 0
DWIDTH 9 0
BBX 0 0 0 0
BITMAP
ENDCHAR
STARTCHAR Atilde
ENCODING 204
SWIDTH 263 0
DWIDTH 9 0
BBX 0 0 0 0
BITMAP
ENDCHAR
STARTCHAR Otilde
ENCODING 205
SWIDTH 263 0
DWIDTH 9 0
BBX 0 0 0 0
BITMAP
ENDCHAR
STARTCHAR OE
ENCODING 206
SWIDTH 263 0
DWIDTH 9 0
BBX 0 0 0 0
BITMAP
ENDCHAR
STARTCHAR oe
ENCODING 207
SWIDTH 263 0
DWIDTH 9 0
BBX 0 0 0 0
BITMAP
ENDCHAR
STARTCHAR endash
ENCODING 208
SWIDTH 263 0
DWIDTH 9 0
BBX 0 0 0 0
BITMAP
ENDCHAR
STARTCHAR emdash
ENCODING 209
SWIDTH 263 0
DWIDTH 9 0
BBX 0 0 0 0
BITMAP
ENDCHAR
STARTCHAR quotedblleft
ENCODING 210
SWIDTH 263 0
DWIDTH 9 0
BBX 0 0 0 0
BITMAP
ENDCHAR
STARTCHAR quotedblright
ENCODING 211
SWIDTH 263 0
DWIDTH 9 0
BBX 0 0 0 0
BITMAP
ENDCHAR
STARTCHAR quoteleft
ENCODING 212
SWIDTH 263 0
DWIDTH 9 0
BBX 0 0 0 0
BITMAP
ENDCHAR
STARTCHAR quoteright
ENCODING 213
SWIDTH 263 0
DWIDTH 9 0
BBX 0 0 0 0
BITMAP
ENDCHAR
STARTCHAR divide
ENCODING 214
SWIDTH 263 0
DWIDTH 9 0
BBX 0 0 0 0
BITMAP
ENDCHAR
STARTCHAR lozenge
ENCODING 215
SWIDTH 263 0
DWIDTH 9 0
BBX 0 0 0 0
BITMAP
ENDCHAR
STARTCHAR ydieresis
ENCODING 216
SWIDTH 263 0
DWIDTH 9 0
BBX 0 0 0 0
BITMAP
ENDCHAR
STARTCHAR Ydieresis
ENCODING 217
SWIDTH 263 0
DWIDTH 9 0
BBX 0 0 0 0
BITMAP
ENDCHAR
STARTCHAR fraction
ENCODING 218
SWIDTH 263 0
DWIDTH 9 0
BBX 0 0 0 0
BITMAP
ENDCHAR
STARTCHAR currency
ENCODING 219
SWIDTH 263 0
DWIDTH 9 0
BBX 0 0 0 0
BITMAP
ENDCHAR
STARTCHAR guilsinglleft
ENCODING 220
SWIDTH 263 0
DWIDTH 9 0
BBX 0 0 0 0
BITMAP
ENDCHAR
STARTCHAR guilsinglright
ENCODING 221
SWIDTH 263 0
DWIDTH 9 0
BBX 0 0 0 0
BITMAP
ENDCHAR
STARTCHAR fi
ENCODING 222
SWIDTH 263 0
DWIDTH 9 0
BBX 0 0 0 0
BITMAP
ENDCHAR
STARTCHAR fl
ENCODING 223
SWIDTH 263 0
DWIDTH 9 0
BBX 0 0 0 0
BITMAP
ENDCHAR
STARTCHAR daggerdbl
ENCODING 224
SWIDTH 263 0
DWIDTH 9 0
BBX 0 0 0 0
BITMAP
ENDCHAR
STARTCHAR periodcentered
ENCODING 225
SWIDTH 263 0
DWIDTH 9 0
BBX 0 0 0 0
BITMAP
ENDCHAR
STARTCHAR quotesinglbase
ENCODING 226
SWIDTH 263 0
DWIDTH 9 0
BBX 0 0 0 0
BITMAP
ENDCHAR
STARTCHAR quotedblbase
ENCODING 227
SWIDTH 263 0
DWIDTH 9 0
BBX 0 0 0 0
BITMAP
ENDCHAR
STARTCHAR perthousand
ENCODING 228
SWIDTH 263 0
DWIDTH 9 0
BBX 0 0 0 0
BITMAP
ENDCHAR
STARTCHAR Acircumflex
ENCODING 229
SWIDTH 263 0
DWIDTH 9 0
BBX 0 0 0 0
BITMAP
ENDCHAR
STARTCHAR Ecircumflex
ENCODING 230
SWIDTH 263 0
DWIDTH 9 0
BBX 0 0 0 0
BITMAP
ENDCHAR
STARTCHAR Aacute
ENCODING 231
SWIDTH 263 0
DWIDTH 9 0
BBX 0 0 0 0
BITMAP
ENDCHAR
STARTCHAR Edieresis
ENCODING 232
SWIDTH 263 0
DWIDTH 9 0
BBX 0 0 0 0
BITMAP
ENDCHAR
STARTCHAR Egrave
ENCODING 233
SWIDTH 263 0
DWIDTH 9 0
BBX 0 0 0 0
BITMAP
ENDCHAR
STARTCHAR Iacute
ENCODING 234
SWIDTH 263 0
DWIDTH 9 0
BBX 0 0 0 0
BITMAP
ENDCHAR
STARTCHAR Icircumflex
ENCODING 235
SWIDTH 263 0
DWIDTH 9 0
BBX 0 0 0 0
BITMAP
ENDCHAR
STARTCHAR Idieresis
ENCODING 236
SWIDTH 263 0
DWIDTH 9 0
BBX 0 0 0 0
BITMAP
ENDCHAR
STARTCHAR Igrave
ENCODING 237
SWIDTH 263 0
DWIDTH 9 0
BBX 0 0 0 0
BITMAP
ENDCHAR
STARTCHAR Oacute
ENCODING 238
SWIDTH 263 0
DWIDTH 9 0
BBX 0 0 0 0
BITMAP
ENDCHAR
STARTCHAR Ocircumflex
ENCODING 239
SWIDTH 263 0
DWIDTH 9 0
BBX 0 0 0 0
BITMAP
ENDCHAR
STARTCHAR apple
ENCODING 240
SWIDTH 263 0
DWIDTH 9 0
BBX 0 0 0 0
BITMAP
ENDCHAR
STARTCHAR Ograve
ENCODING 241
SWIDTH 263 0
DWIDTH 9 0
BBX 0 0 0 0
BITMAP
ENDCHAR
STARTCHAR Uacute
ENCODING 242
SWIDTH 263 0
DWIDTH 9 0
BBX 0 0 0 0
BITMAP
ENDCHAR
STARTCHAR Ucircumflex
ENCODING 243
SWIDTH 263 0
DWIDTH 9 0
BBX 0 0 0 0
BITMAP
ENDCHAR
STARTCHAR Ugrave
ENCODING 244
SWIDTH 263 0
DWIDTH 9 0
BBX 0 0 0 0
BITMAP
ENDCHAR
STARTCHAR dotlessi
ENCODING 245
SWIDTH 263 0
DWIDTH 9 0
BBX 0 0 0 0
BITMAP
ENDCHAR
STARTCHAR circumflex
ENCODING 246
SWIDTH 263 0
DWIDTH 9 0
BBX 0 0 0 0
BITMAP
ENDCHAR
STARTCHAR tilde
ENCODING 247
SWIDTH 263 0
DWIDTH 9 0
BBX 0 0 0 0
BITMAP
ENDCHAR
STARTCHAR macron
ENCODING 248
SWIDTH 263 0
DWIDTH 9 0
BBX 0 0 0 0
BITMAP
ENDCHAR
STARTCHAR breve
ENCODING 249
SWIDTH 263 0
DWIDTH 9 0
BBX 0 0 0 0
BITMAP
ENDCHAR
STARTCHAR dotaccent
ENCODING 250
SWIDTH 263 0
DWIDTH 9 0
BBX 0 0 0 0
BITMAP
ENDCHAR
STARTCHAR ring
ENCODING 251
SWIDTH 263 0
DWIDTH 9 0
BBX 0 0 0 0
BITMAP
ENDCHAR
STARTCHAR cedilla
ENCODING 252
SWIDTH 263 0
DWIDTH 9 0
BBX 0 0 0 0
BITMAP
ENDCHAR
STARTCHAR hungarumlaut
ENCODING 253
SWIDTH 263 0
DWIDTH 9 0
BBX 0 0 0 0
BITMAP
ENDCHAR
STARTCHAR ogonek
ENCODING 254
SWIDTH 263 0
DWIDTH 9 0
BBX 0 0 0 0
BITMAP
ENDCHAR
STARTCHAR caron
ENCODING 255
SWIDTH 263 0
DWIDTH 9 0
BBX 0 0 0 0
BITMAP
ENDCHAR
ENDFONT
